<?xml version="1.0" encoding="UTF-8" standalone="no"?>
<!-- Created with Inkscape (http://www.inkscape.org/) -->

<svg
   width="150.10056mm"
   height="154.82399mm"
   viewBox="0 0 150.10056 154.82399"
   version="1.1"
   id="svg1"
   xml:space="preserve"
   sodipodi:docname="GASSS.svg"
   inkscape:version="1.4.1 (1:1.4.1+202503302257+93de688d07)"
   xmlns:inkscape="http://www.inkscape.org/namespaces/inkscape"
   xmlns:sodipodi="http://sodipodi.sourceforge.net/DTD/sodipodi-0.dtd"
   xmlns="http://www.w3.org/2000/svg"
   xmlns:svg="http://www.w3.org/2000/svg"><sodipodi:namedview
     id="namedview1"
     pagecolor="#ffffff"
     bordercolor="#000000"
     borderopacity="0.25"
     inkscape:showpageshadow="2"
     inkscape:pageopacity="0.0"
     inkscape:pagecheckerboard="0"
     inkscape:deskcolor="#d1d1d1"
     inkscape:document-units="mm"
     inkscape:zoom="0.79496937"
     inkscape:cx="302.52738"
     inkscape:cy="398.12855"
     inkscape:window-width="1440"
     inkscape:window-height="875"
     inkscape:window-x="0"
     inkscape:window-y="0"
     inkscape:window-maximized="1"
     inkscape:current-layer="g3"><inkscape:page
       x="0"
       y="-1.1718831e-13"
       width="150.10056"
       height="154.82397"
       id="page2"
       margin="0"
       bleed="0" /></sodipodi:namedview><defs
     id="defs1" /><g
     inkscape:label="Layer 1"
     inkscape:groupmode="layer"
     id="layer1"
     transform="translate(-44.392483,-50.91962)"><g
       id="g3"
       transform="matrix(0.22639758,-0.00114471,0.00110508,0.23451683,48.482499,70.3217)"
       style="display:inline"><g
         style="fill:#ff7f2a"
         id="g7"
         transform="matrix(19.17038,0.09357335,-0.09297772,19.048333,-22.526601,-87.604321)"><path
           d="M 29.545,34.75 H 5.455 a 5.211,5.211 0 0 1 -5.2,-5.2 V 8.56 A 5.21,5.21 0 0 1 5.46,3.36 h 24.09 a 5.21,5.21 0 0 1 5.2,5.205 v 20.98 A 5.211,5.211 0 0 1 29.545,34.75 Z M 5.455,5.855 A 2.708,2.708 0 0 0 2.75,8.56 v 20.985 a 2.709,2.709 0 0 0 2.705,2.7 h 24.09 a 2.708,2.708 0 0 0 2.7,-2.7 V 8.56 a 2.707,2.707 0 0 0 -2.7,-2.7 z"
           id="path1-5"
           style="fill:#ff7f2a" /><path
           d="m 33.576683,13.829383 h -31.959 a 1.25,1.25 0 0 1 0,-2.5 h 31.959 a 1.25,1.25 0 0 1 0,2.5 z"
           id="path2-3"
           style="fill:#ff7f2a" /><path
           d="M 9.459,9.155 A 1.249,1.249 0 0 1 8.209,7.905 V 1.5 a 1.25,1.25 0 0 1 2.5,0 v 6.405 a 1.25,1.25 0 0 1 -1.25,1.25 z"
           id="path3-5"
           style="fill:#ff7f2a" /><path
           d="m 25.542,9.155 a 1.249,1.249 0 0 1 -1.25,-1.25 V 1.5 a 1.25,1.25 0 0 1 2.5,0 v 6.405 a 1.25,1.25 0 0 1 -1.25,1.25 z"
           id="path4-6"
           style="fill:#ff7f2a" /></g><g
         id="g6"
         transform="matrix(1.0491387,0.28863324,-0.27148795,0.97430382,115.66991,30.069792)"
         style="display:inline;stroke-width:1.10143"><path
           style="fill:#ff9955;stroke-width:1.10143"
           d="m 268.441,355.178 -111.62,-111.62 c -7.691,-7.691 -7.691,-20.158 0,-27.849 7.691,-7.691 20.158,-7.691 27.849,0 l 111.62,111.62 c 7.69,7.69 7.69,20.158 0,27.849 -7.691,7.69 -20.16,7.69 -27.849,0 z"
           id="path1" /><path
           style="fill:#ff6600;stroke-width:1.10143"
           d="m 296.29,327.328 -55.809,-55.809 -27.849,27.849 55.809,55.809 c 7.691,7.69 20.158,7.69 27.849,0 7.69,-7.69 7.69,-20.159 0,-27.849 z"
           id="path2" /><path
           style="fill:#4d4d4d;stroke-width:1.10143"
           d="M 441.297,182.321 329.677,70.701 c -7.69,-7.691 -7.69,-20.158 0,-27.849 7.691,-7.691 20.158,-7.691 27.849,0 l 111.62,111.62 c 7.691,7.691 7.691,20.158 0,27.849 -7.69,7.691 -20.159,7.691 -27.849,0 z"
           id="path3" /><path
           style="fill:#1a1a1a;stroke-width:1.10143"
           d="m 469.146,154.472 -55.809,-55.809 -27.849,27.849 55.809,55.809 c 7.69,7.691 20.158,7.691 27.849,0 7.691,-7.69 7.689,-20.158 0,-27.849 z"
           id="path4" /><path
           style="fill:#00ffff;stroke-width:1.10143"
           d="M 154.468,469.144 42.854,357.53 c -7.691,-7.691 -7.691,-20.158 0,-27.849 7.691,-7.691 20.158,-7.69 27.849,0 l 111.613,111.613 c 7.691,7.691 7.691,20.158 0,27.849 -7.688,7.691 -20.157,7.691 -27.848,0.001 z"
           id="path5" /><path
           style="fill:#28c3e4;stroke-width:1.10143"
           d="m 182.319,441.295 -55.807,-55.807 -27.849,27.849 55.807,55.807 c 7.69,7.69 20.158,7.69 27.849,0 7.689,-7.691 7.689,-20.16 0,-27.849 z"
           id="path6" /><path
           style="fill:#ff2a2a;stroke-width:1.10143"
           d="M 327.328,296.29 215.708,184.67 c -7.691,-7.691 -7.691,-20.158 0,-27.849 7.691,-7.691 20.158,-7.691 27.849,0 l 111.62,111.62 c 7.691,7.69 7.691,20.158 0,27.849 -7.69,7.69 -20.159,7.69 -27.849,0 z"
           id="path7" /><path
           style="fill:#d40000;stroke-width:1.10143"
           d="m 355.178,268.441 -55.809,-55.809 -27.849,27.848 55.809,55.809 c 7.69,7.69 20.158,7.69 27.849,0 7.689,-7.69 7.689,-20.158 0,-27.848 z"
           id="path8" /><path
           style="display:inline;fill:#00ff00;stroke-width:1.10143"
           d="m 366.417,193.56 c 37.155,4.394 101.57,5.201 139.814,-33.041 7.69,-7.691 7.69,-20.158 0,-27.849 -7.69,-7.691 -20.158,-7.691 -27.849,0 -26.98,26.98 -81.583,26.259 -119.264,20.076 -5.306,-31.63 -8.262,-90.656 20.212,-119.129 7.69,-7.691 7.69,-20.158 0,-27.849 -7.691,-7.691 -20.158,-7.691 -27.849,0 C 313.237,44.012 314.046,108.428 318.44,145.582 192.886,130.737 130.418,190.177 145.584,318.438 108.429,314.045 44.012,313.237 5.77,351.479 c -7.691,7.69 -7.691,20.158 0,27.849 7.691,7.69 20.158,7.69 27.849,0 26.923,-26.923 81.383,-26.276 119.148,-20.094 6.177,37.748 6.835,92.219 -20.094,119.148 -7.691,7.691 -7.691,20.158 0,27.849 7.691,7.691 20.158,7.69 27.849,0 38.244,-38.244 37.435,-102.659 33.041,-139.814 125.552,14.845 188.019,-44.595 172.854,-172.857 z m -40.796,-7.182 c 17.757,108.522 -23.124,143.05 -98.11,142.773 -16.431,-0.06 -31.3,-1.921 -41.133,-3.53 -1.61,-9.837 -3.47,-24.702 -3.53,-41.133 -0.271,-73.176 32.338,-116.186 142.773,-98.11 z"
           id="path9" /><path
           style="fill:#800080;stroke-width:1.10143"
           d="m 193.56,366.417 c 125.556,14.845 188.022,-44.595 172.856,-172.856 37.155,4.394 101.57,5.201 139.814,-33.041 7.69,-7.691 7.69,-20.158 0,-27.849 -7.69,-7.691 -20.158,-7.691 -27.849,0 -26.952,26.952 -81.468,26.26 -119.148,20.094 l -33.615,33.615 c 17.757,108.522 -23.124,143.05 -98.11,142.773 -16.431,-0.06 -31.3,-1.921 -41.133,-3.53 l -33.613,33.613 c 6.177,37.748 6.835,92.219 -20.094,119.148 -7.691,7.691 -7.691,20.158 0,27.849 7.691,7.691 20.158,7.69 27.849,0 38.245,-38.245 37.436,-102.661 33.043,-139.816 z"
           id="path10" /></g></g></g></svg>
